name Walk8.mot
datacolumns 19
datarows 27
range 1.81300000 1.83900000
endheader

                time	   L_ground_force_vx	   L_ground_force_vy	   L_ground_force_vz	   L_ground_force_px	   L_ground_force_py	   L_ground_force_pz	   R_ground_force_vx	   R_ground_force_vy	   R_ground_force_vz	   R_ground_force_px	   R_ground_force_py	   R_ground_force_pz	   L_ground_torque_x	   L_ground_torque_y	   L_ground_torque_z	   R_ground_torque_x	   R_ground_torque_y	   R_ground_torque_z	
          1.81300000	         37.76951468	        931.95254280	         69.96734552	         -0.10883660	          0.00000000	         -0.03047653	          0.00237682	          0.04128683	          0.00455386	          0.00008011	          0.00000000	          0.00002212	          0.00000000	         -1.17948645	          0.00000000	          0.00000000	         -0.00087318	          0.00000000	
          1.81400000	         38.37455566	        933.47808852	         70.16668918	         -0.10864290	          0.00000000	         -0.03051175	          0.00183155	          0.05081494	          0.00532337	          0.00009008	          0.00000000	          0.00002484	          0.00000000	         -1.18924229	          0.00000000	          0.00000000	         -0.00081896	          0.00000000	
          1.81500000	         38.98003519	        935.01295852	         70.36791992	         -0.10844886	          0.00000000	         -0.03054691	          0.00122804	          0.06101858	          0.00614240	          0.00010061	          0.00000000	          0.00002771	          0.00000000	         -1.19907547	          0.00000000	          0.00000000	         -0.00075631	          0.00000000	
          1.81600000	         39.58630158	        936.55770057	         70.57092134	         -0.10825454	          0.00000000	         -0.03058197	          0.00056337	          0.07191839	          0.00701217	          0.00011170	          0.00000000	          0.00003073	          0.00000000	         -1.20899370	          0.00000000	          0.00000000	         -0.00068471	          0.00000000	
          1.81700000	         40.19371317	        938.11283855	         70.77557222	         -0.10806001	          0.00000000	         -0.03061692	         -0.00016538	          0.08353406	          0.00793380	          0.00012336	          0.00000000	          0.00003390	          0.00000000	         -1.21900516	          0.00000000	          0.00000000	         -0.00060364	          0.00000000	
          1.81800000	         40.80263675	        939.67886818	         70.98174665	         -0.10786532	          0.00000000	         -0.03065173	         -0.00096117	          0.09588412	          0.00890831	          0.00013559	          0.00000000	          0.00003723	          0.00000000	         -1.22911833	          0.00000000	          0.00000000	         -0.00051254	          0.00000000	
          1.81900000	         41.41344565	        941.25625204	         71.18931421	         -0.10767056	          0.00000000	         -0.03068637	         -0.00182694	          0.10898582	          0.00993658	          0.00014840	          0.00000000	          0.00004072	          0.00000000	         -1.23934166	          0.00000000	          0.00000000	         -0.00041086	          0.00000000	
          1.82000000	         42.02651765	        942.84541425	         71.39814025	         -0.10747578	          0.00000000	         -0.03072083	         -0.00276562	          0.12285489	          0.01101937	          0.00016178	          0.00000000	          0.00004436	          0.00000000	         -1.24968308	          0.00000000	          0.00000000	         -0.00029803	          0.00000000	
          1.82100000	         42.64223291	        944.44673533	         71.60808665	         -0.10728106	          0.00000000	         -0.03075507	         -0.00378010	          0.13750537	          0.01215727	          0.00017575	          0.00000000	          0.00004815	          0.00000000	         -1.26014951	          0.00000000	          0.00000000	         -0.00017349	          0.00000000	
          1.82200000	         43.26097194	        946.06054818	         71.81901291	         -0.10708646	          0.00000000	         -0.03078909	         -0.00487324	          0.15294935	          0.01335070	          0.00019028	          0.00000000	          0.00005210	          0.00000000	         -1.27074653	          0.00000000	          0.00000000	         -0.00003666	          0.00000000	
          1.82300000	         43.88311368	        947.68713569	         72.03077736	         -0.10689205	          0.00000000	         -0.03082284	         -0.00604783	          0.16919681	          0.01459990	          0.00020538	          0.00000000	          0.00005621	          0.00000000	         -1.28147810	          0.00000000	          0.00000000	          0.00011304	          0.00000000	
          1.82400000	         44.50903378	        949.32673002	         72.24323838	         -0.10669790	          0.00000000	         -0.03085633	         -0.00730660	          0.18625529	          0.01590488	          0.00022103	          0.00000000	          0.00006046	          0.00000000	         -1.29234650	          0.00000000	          0.00000000	          0.00027619	          0.00000000	
          1.82500000	         45.13910358	        950.97951293	         72.45625526	         -0.10650406	          0.00000000	         -0.03088954	         -0.00865216	          0.20412972	          0.01726543	          0.00023723	          0.00000000	          0.00006485	          0.00000000	         -1.30335246	          0.00000000	          0.00000000	          0.00045335	          0.00000000	
          1.82600000	         45.77368954	        952.64561653	         72.66968856	         -0.10631060	          0.00000000	         -0.03092244	         -0.01008703	          0.22282209	          0.01868112	          0.00025395	          0.00000000	          0.00006939	          0.00000000	         -1.31449541	          0.00000000	          0.00000000	          0.00064510	          0.00000000	
          1.82700000	         46.41315295	        954.32512407	         72.88340006	         -0.10611756	          0.00000000	         -0.03095504	         -0.01161357	          0.24233121	          0.02015120	          0.00027117	          0.00000000	          0.00007406	          0.00000000	         -1.32577382	          0.00000000	          0.00000000	          0.00085201	          0.00000000	
          1.82800000	         47.05784941	        956.01807069	         73.09725233	         -0.10592499	          0.00000000	         -0.03098732	         -0.01323401	          0.26265241	          0.02167467	          0.00028888	          0.00000000	          0.00007886	          0.00000000	         -1.33718547	          0.00000000	          0.00000000	          0.00107463	          0.00000000	
          1.82900000	         47.70812778	        957.72444396	         73.31110865	         -0.10573295	          0.00000000	         -0.03101928	         -0.01495036	          0.28377724	          0.02325019	          0.00030704	          0.00000000	          0.00008378	          0.00000000	         -1.34872773	          0.00000000	          0.00000000	          0.00131349	          0.00000000	
          1.83000000	         48.36432916	        959.44418402	         73.52483334	         -0.10554147	          0.00000000	         -0.03105089	         -0.01676447	          0.30569311	          0.02487610	          0.00032562	          0.00000000	          0.00008881	          0.00000000	         -1.36039763	          0.00000000	          0.00000000	          0.00156913	          0.00000000	
          1.83100000	         49.02678561	        961.17718317	         73.73829238	         -0.10535061	          0.00000000	         -0.03108214	         -0.01867791	          0.32838303	          0.02655036	          0.00034458	          0.00000000	          0.00009395	          0.00000000	         -1.37219189	          0.00000000	          0.00000000	          0.00184204	          0.00000000	
          1.83200000	         49.69581892	        962.92328489	         73.95135416	         -0.10516041	          0.00000000	         -0.03111303	         -0.02069203	          0.35182522	          0.02827055	          0.00036387	          0.00000000	          0.00009917	          0.00000000	         -1.38410668	          0.00000000	          0.00000000	          0.00213270	          0.00000000	
          1.83300000	         50.37173907	        964.68228303	         74.16389022	         -0.10497090	          0.00000000	         -0.03114352	         -0.02280785	          0.37599277	          0.03003383	          0.00038346	          0.00000000	          0.00010447	          0.00000000	         -1.39613735	          0.00000000	          0.00000000	          0.00244157	          0.00000000	
          1.83400000	         51.05484257	        966.45392141	         74.37577592	         -0.10478214	          0.00000000	         -0.03117362	         -0.02502609	          0.40085328	          0.03183693	          0.00040329	          0.00000000	          0.00010982	          0.00000000	         -1.40827803	          0.00000000	          0.00000000	          0.00276905	          0.00000000	
          1.83500000	         51.74541112	        968.23789375	         74.58689126	         -0.10459416	          0.00000000	         -0.03120330	         -0.02734710	          0.42636846	          0.03367610	          0.00042329	          0.00000000	          0.00011523	          0.00000000	         -1.42052145	          0.00000000	          0.00000000	          0.00311553	          0.00000000	
          1.83600000	         52.44371090	        970.03384396	         74.79712147	         -0.10440699	          0.00000000	         -0.03123255	         -0.02977085	          0.45249378	          0.03554709	          0.00044340	          0.00000000	          0.00012065	          0.00000000	         -1.43285910	          0.00000000	          0.00000000	          0.00348134	          0.00000000	
          1.83700000	         53.14999281	        971.84136657	         75.00635737	         -0.10422067	          0.00000000	         -0.03126136	         -0.03229688	          0.47917803	          0.03744514	          0.00046355	          0.00000000	          0.00012609	          0.00000000	         -1.44528151	          0.00000000	          0.00000000	          0.00386676	          0.00000000	
          1.83800000	         53.86449312	        973.66000745	         75.21449519	         -0.10403523	          0.00000000	         -0.03128973	         -0.03492426	          0.50636296	          0.03936492	          0.00048366	          0.00000000	          0.00013151	          0.00000000	         -1.45777876	          0.00000000	          0.00000000	          0.00427203	          0.00000000	
          1.83900000	         54.58743434	        975.48926501	         75.42143612	         -0.10385068	          0.00000000	         -0.03131764	         -0.03765155	          0.53398281	          0.04130052	          0.00050364	          0.00000000	          0.00013689	          0.00000000	         -1.47034079	          0.00000000	          0.00000000	          0.00469732	          0.00000000	
